<svg width="100" height="100" viewBox="0 0 100 100" fill="none" xmlns="http://www.w3.org/2000/svg">
<g filter="url(#filter0_d_23_519)">
<circle cx="50" cy="50" r="20" fill="white"/>
</g>
<g clip-path="url(#clip0_23_519)">
<path d="M55.2321 44.3311C54.9912 44.3311 54.7951 44.5271 54.7951 44.768C54.7951 45.009 54.9912 45.205 55.2321 45.205C55.473 45.205 55.6691 45.009 55.6691 44.768C55.6691 44.5271 55.473 44.3311 55.2321 44.3311ZM49.9997 46.1263C47.8636 46.1263 46.1257 47.8642 46.1257 50.0004C46.1257 52.1366 47.8636 53.8745 49.9997 53.8745C52.1359 53.8745 53.8739 52.1366 53.8739 50.0004C53.8739 47.8643 52.1359 46.1263 49.9997 46.1263Z" fill="#064681"/>
<path d="M54.0656 41H45.9344C43.2136 41 41 43.2136 41 45.9345V54.0656C41 56.7865 43.2136 59 45.9344 59H54.0656C56.7865 59 59 56.7864 59 54.0656V45.9345C59 43.2136 56.7865 41 54.0656 41ZM50 54.9371C47.2777 54.9371 45.063 52.7223 45.063 50C45.063 47.2777 47.2777 45.063 50 45.063C52.7223 45.063 54.9371 47.2777 54.9371 50C54.9371 52.7223 52.7223 54.9371 50 54.9371ZM55.2323 46.2677C54.4053 46.2677 53.7324 45.5948 53.7324 44.7677C53.7324 43.9406 54.4053 43.2677 55.2323 43.2677C56.0594 43.2677 56.7323 43.9406 56.7323 44.7677C56.7323 45.5947 56.0594 46.2677 55.2323 46.2677Z" fill="#064681"/>
</g>
<defs>
<filter id="filter0_d_23_519" x="0" y="0" width="100" height="100" filterUnits="userSpaceOnUse" color-interpolation-filters="sRGB">
<feFlood flood-opacity="0" result="BackgroundImageFix"/>
<feColorMatrix in="SourceAlpha" type="matrix" values="0 0 0 0 0 0 0 0 0 0 0 0 0 0 0 0 0 0 127 0" result="hardAlpha"/>
<feOffset/>
<feGaussianBlur stdDeviation="15"/>
<feComposite in2="hardAlpha" operator="out"/>
<feColorMatrix type="matrix" values="0 0 0 0 0 0 0 0 0 0 0 0 0 0 0 0 0 0 0.06 0"/>
<feBlend mode="normal" in2="BackgroundImageFix" result="effect1_dropShadow_23_519"/>
<feBlend mode="normal" in="SourceGraphic" in2="effect1_dropShadow_23_519" result="shape"/>
</filter>
<clipPath id="clip0_23_519">
<rect width="18" height="18" fill="white" transform="translate(41 41)"/>
</clipPath>
</defs>
</svg>
